<svg
    xmlns="http://www.w3.org/2000/svg"
    version="1.1"
    width="500px" height="500px"
    style="shape-rendering:geometricPrecision; text-rendering:geometricPrecision; image-rendering:optimizeQuality; fill-rule:evenodd; clip-rule:evenodd"
    xmlns:xlink="http://www.w3.org/1999/xlink">
    <g>
        <path style="opacity:0.529" fill="#a7a7a7"
            d="M 262.5,133.5 C 261.833,134.833 260.833,135.833 259.5,136.5C 259.5,134.5 260.5,133.5 262.5,133.5 Z" />
    </g>
    <g>
        <path style="opacity:0.224" fill="#dfdfdf"
            d="M 274.5,141.5 C 275.5,141.833 276.167,142.5 276.5,143.5C 275.167,143.5 274.5,142.833 274.5,141.5 Z" />
    </g>
    <g>
        <path style="opacity:0.004" fill="#d5d5d5"
            d="M 208.5,152.5 C 210.027,152.427 211.027,153.094 211.5,154.5C 209.973,154.573 208.973,153.906 208.5,152.5 Z" />
    </g>
    <g>
        <path style="opacity:0.663" fill="#a0a0a0"
            d="M 201.5,152.5 C 201.027,153.906 200.027,154.573 198.5,154.5C 198.973,153.094 199.973,152.427 201.5,152.5 Z" />
    </g>
    <g>
        <path style="opacity:0.745" fill="#8b8b8b"
            d="M 211.5,154.5 C 212.906,154.973 213.573,155.973 213.5,157.5C 212.094,157.027 211.427,156.027 211.5,154.5 Z" />
    </g>
    <g>
        <path style="opacity:0.765" fill="#959595"
            d="M 286.5,155.5 C 288.898,155.259 290.898,155.926 292.5,157.5C 290.214,157.405 288.214,156.738 286.5,155.5 Z" />
    </g>
    <g>
        <path style="opacity:0.999" fill="#161616"
            d="M 208.5,152.5 C 208.973,153.906 209.973,154.573 211.5,154.5C 211.427,156.027 212.094,157.027 213.5,157.5C 214.152,158.449 214.486,159.615 214.5,161C 214.607,163.221 213.94,165.054 212.5,166.5C 208.849,168.746 204.849,169.746 200.5,169.5C 198.5,169.5 197.5,168.5 197.5,166.5C 197.307,162.434 197.64,158.434 198.5,154.5C 200.027,154.573 201.027,153.906 201.5,152.5C 203.833,151.167 206.167,151.167 208.5,152.5 Z" />
    </g>
    <g>
        <path style="opacity:0.835" fill="#636363"
            d="M 198.5,154.5 C 197.64,158.434 197.307,162.434 197.5,166.5C 196.357,163.024 196.19,159.358 197,155.5C 197.383,154.944 197.883,154.611 198.5,154.5 Z" />
    </g>
    <g>
        <path style="opacity:0.004" fill="#fdfefd"
            d="M 158.5,164.5 C 159.833,165.167 159.833,165.167 158.5,164.5 Z" />
    </g>
    <g>
        <path style="opacity:0.009" fill="#dfdfdf"
            d="M 158.5,165.5 C 158.5,166.167 158.833,166.5 159.5,166.5C 158.167,167.833 156.833,169.167 155.5,170.5C 155.273,168.067 156.273,166.401 158.5,165.5 Z" />
    </g>
    <g>
        <path style="opacity:0.545" fill="#a9a9a9"
            d="M 166.5,166.5 C 164.5,166.5 162.5,166.5 160.5,166.5C 162.358,164.269 164.358,164.269 166.5,166.5 Z" />
    </g>
    <g>
        <path style="opacity:0.192" fill="#c4c4c4"
            d="M 245.5,163.5 C 243.605,165.241 241.272,166.241 238.5,166.5C 240.395,164.759 242.728,163.759 245.5,163.5 Z" />
    </g>
    <g>
        <path style="opacity:1" fill="#212121"
            d="M 274.5,141.5 C 274.5,142.833 275.167,143.5 276.5,143.5C 282.26,145.365 287.927,147.532 293.5,150C 299.514,148.628 304.681,150.128 309,154.5C 310.373,156.695 310.706,159.029 310,161.5C 305.781,168.772 300.948,175.605 295.5,182C 297.898,183.524 300.231,185.024 302.5,186.5C 302.821,188.048 303.821,188.715 305.5,188.5C 311.587,190.411 317.253,193.077 322.5,196.5C 321.448,196.351 320.448,196.517 319.5,197C 320.28,198.073 320.113,199.24 319,200.5C 317.869,199.396 317.035,199.729 316.5,201.5C 318.958,202.124 320.624,203.624 321.5,206C 320.207,206.49 318.873,206.657 317.5,206.5C 317.539,208.359 316.706,209.692 315,210.5C 312.904,209.285 313.071,208.451 315.5,208C 313.699,207.683 313.366,207.016 314.5,206C 312.817,202.603 310.817,202.103 308.5,204.5C 308.167,204.5 307.833,204.5 307.5,204.5C 305.833,203.5 304.5,202.167 303.5,200.5C 303.573,198.973 302.906,197.973 301.5,197.5C 299.447,197.598 297.78,196.931 296.5,195.5C 296.027,194.094 295.027,193.427 293.5,193.5C 289.849,192.341 286.515,190.674 283.5,188.5C 283.027,187.094 282.027,186.427 280.5,186.5C 279.508,186.672 278.842,186.338 278.5,185.5C 278.027,184.094 277.027,183.427 275.5,183.5C 270.068,181.285 264.735,178.785 259.5,176C 255.5,175.333 251.5,175.333 247.5,176C 233.141,180.285 219.141,185.452 205.5,191.5C 205.167,191.5 204.833,191.5 204.5,191.5C 203.542,190.038 202.376,188.705 201,187.5C 198.239,188.796 195.405,189.963 192.5,191C 194.608,192.635 196.274,195.135 197.5,198.5C 193.407,197.618 189.74,195.951 186.5,193.5C 186.027,192.094 185.027,191.427 183.5,191.5C 181.181,191.008 179.181,190.008 177.5,188.5C 177.027,187.094 176.027,186.427 174.5,186.5C 172.447,186.598 170.78,185.931 169.5,184.5C 168.779,182.618 167.779,182.285 166.5,183.5C 163.548,184.973 160.881,184.64 158.5,182.5C 158.167,181.5 157.5,180.833 156.5,180.5C 154.431,177.398 154.097,174.064 155.5,170.5C 156.833,169.167 158.167,167.833 159.5,166.5C 159.833,166.5 160.167,166.5 160.5,166.5C 162.5,166.5 164.5,166.5 166.5,166.5C 166.833,166.5 167.167,166.5 167.5,166.5C 168.167,167.833 169.167,168.833 170.5,169.5C 171.931,170.78 172.598,172.447 172.5,174.5C 172.5,175.5 172.5,176.5 172.5,177.5C 173.5,177.5 174.5,177.5 175.5,177.5C 180.484,179.326 185.151,181.659 189.5,184.5C 190.312,185.993 191.645,186.66 193.5,186.5C 195.355,186.66 196.688,185.993 197.5,184.5C 201.182,181.992 205.182,179.992 209.5,178.5C 210.492,178.672 211.158,178.338 211.5,177.5C 220.382,173.56 229.382,169.893 238.5,166.5C 241.272,166.241 243.605,165.241 245.5,163.5C 248.515,162.22 251.515,161.887 254.5,162.5C 255.209,163.404 256.209,163.737 257.5,163.5C 263.999,166.582 270.332,169.915 276.5,173.5C 277.895,176.312 280.229,177.646 283.5,177.5C 285.534,180.205 287.201,179.872 288.5,176.5C 290.846,173.129 293.179,169.796 295.5,166.5C 296.715,165.221 296.382,164.221 294.5,163.5C 293.262,161.786 292.595,159.786 292.5,157.5C 290.898,155.926 288.898,155.259 286.5,155.5C 283.088,154.925 280.088,153.592 277.5,151.5C 277.027,150.094 276.027,149.427 274.5,149.5C 261.062,154.632 256.062,150.299 259.5,136.5C 260.833,135.833 261.833,134.833 262.5,133.5C 269.529,131.678 273.529,134.345 274.5,141.5 Z" />
    </g>
    <g>
        <path style="opacity:0.01" fill="#f3f3f3"
            d="M 211.5,177.5 C 211.158,178.338 210.492,178.672 209.5,178.5C 209.409,176.302 210.075,175.969 211.5,177.5 Z" />
    </g>
    <g>
        <path style="opacity:0.169" fill="#e0e0e0"
            d="M 172.5,174.5 C 173.222,174.918 173.722,175.584 174,176.5C 175.107,175.288 175.607,175.621 175.5,177.5C 174.5,177.5 173.5,177.5 172.5,177.5C 172.5,176.5 172.5,175.5 172.5,174.5 Z" />
    </g>
    <g>
        <path style="opacity:0.953" fill="#8a8a8a"
            d="M 276.5,173.5 C 279.004,174.584 281.337,175.917 283.5,177.5C 280.229,177.646 277.895,176.312 276.5,173.5 Z" />
    </g>
    <g>
        <path style="opacity:0.982" fill="#636363"
            d="M 212.5,166.5 C 212.063,168.074 211.063,169.241 209.5,170C 206.304,170.805 203.304,170.638 200.5,169.5C 204.849,169.746 208.849,168.746 212.5,166.5 Z" />
    </g>
    <g>
        <path style="opacity:0.008" fill="#cbcbcb"
            d="M 167.5,166.5 C 169.5,166.5 170.5,167.5 170.5,169.5C 169.167,168.833 168.167,167.833 167.5,166.5 Z" />
    </g>
    <g>
        <path style="opacity:0.251" fill="#adadad"
            d="M 294.5,163.5 C 296.382,164.221 296.715,165.221 295.5,166.5C 294.89,165.609 294.557,164.609 294.5,163.5 Z" />
    </g>
    <g>
        <path style="opacity:0.776" fill="#909090"
            d="M 257.5,163.5 C 256.209,163.737 255.209,163.404 254.5,162.5C 254.435,162.062 254.601,161.728 255,161.5C 255.995,162.066 256.828,162.733 257.5,163.5 Z" />
    </g>
    <g>
        <path style="opacity:0.275" fill="#aaaaaa"
            d="M 274.5,149.5 C 276.027,149.427 277.027,150.094 277.5,151.5C 275.973,151.573 274.973,150.906 274.5,149.5 Z" />
    </g>
    <g>
        <path style="opacity:0.031" fill="#c0c0c0"
            d="M 288.5,176.5 C 287.201,179.872 285.534,180.205 283.5,177.5C 285.216,177.371 286.883,177.038 288.5,176.5 Z" />
    </g>
    <g>
        <path style="opacity:0.008" fill="#c0c0c0"
            d="M 156.5,180.5 C 157.5,180.833 158.167,181.5 158.5,182.5C 157.167,182.5 156.5,181.833 156.5,180.5 Z" />
    </g>
    <g>
        <path style="opacity:0.329" fill="#a3a3a3"
            d="M 166.5,183.5 C 167.779,182.285 168.779,182.618 169.5,184.5C 168.391,184.443 167.391,184.11 166.5,183.5 Z" />
    </g>
    <g>
        <path style="opacity:0.271" fill="#b0b0b0"
            d="M 275.5,183.5 C 277.027,183.427 278.027,184.094 278.5,185.5C 276.973,185.573 275.973,184.906 275.5,183.5 Z" />
    </g>
    <g>
        <path style="opacity:0.01" fill="#d5d5d5"
            d="M 189.5,184.5 C 192.167,185.833 194.833,185.833 197.5,184.5C 196.688,185.993 195.355,186.66 193.5,186.5C 191.645,186.66 190.312,185.993 189.5,184.5 Z" />
    </g>
    <g>
        <path style="opacity:0.384" fill="#a1a1a1"
            d="M 174.5,186.5 C 176.027,186.427 177.027,187.094 177.5,188.5C 175.973,188.573 174.973,187.906 174.5,186.5 Z" />
    </g>
    <g>
        <path style="opacity:0.349" fill="#a0a0a0"
            d="M 280.5,186.5 C 282.027,186.427 283.027,187.094 283.5,188.5C 281.973,188.573 280.973,187.906 280.5,186.5 Z" />
    </g>
    <g>
        <path style="opacity:0.831" fill="#8a8a8a"
            d="M 302.5,186.5 C 303.71,186.932 304.71,187.599 305.5,188.5C 303.821,188.715 302.821,188.048 302.5,186.5 Z" />
    </g>
    <g>
        <path style="opacity:0.016" fill="#cbcbcb"
            d="M 204.5,191.5 C 204.833,191.5 205.167,191.5 205.5,191.5C 205.833,192.167 206.167,192.833 206.5,193.5C 205.761,193.631 205.094,193.464 204.5,193C 203.262,192.31 203.262,191.81 204.5,191.5 Z" />
    </g>
    <g>
        <path style="opacity:0.192" fill="#b9b9b9"
            d="M 183.5,191.5 C 185.027,191.427 186.027,192.094 186.5,193.5C 184.973,193.573 183.973,192.906 183.5,191.5 Z" />
    </g>
    <g>
        <path style="opacity:0.808" fill="#929292"
            d="M 139.5,193.5 C 136.495,195.277 133.162,196.277 129.5,196.5C 131.902,195.633 134.068,194.3 136,192.5C 137.011,193.337 138.178,193.67 139.5,193.5 Z" />
    </g>
    <g>
        <path style="opacity:1" fill="#151515"
            d="M 170.5,197.5 C 171.78,198.931 173.447,199.598 175.5,199.5C 176.833,200.167 177.833,201.167 178.5,202.5C 180.167,204.833 182.167,206.833 184.5,208.5C 184.738,210.404 185.738,211.738 187.5,212.5C 189.4,215.518 190.733,218.851 191.5,222.5C 191.5,224.167 191.5,225.833 191.5,227.5C 183.5,227.5 175.5,227.5 167.5,227.5C 166.559,225.95 165.893,224.284 165.5,222.5C 165.573,220.973 164.906,219.973 163.5,219.5C 157.438,215.032 150.771,213.699 143.5,215.5C 141.973,215.427 140.973,216.094 140.5,217.5C 138.514,219.974 137.181,222.807 136.5,226C 136.639,227.301 137.305,228.134 138.5,228.5C 150.87,232.259 163.537,235.426 176.5,238C 179.476,238.705 182.142,239.871 184.5,241.5C 185.035,243.446 186.368,244.446 188.5,244.5C 189.5,244.833 190.167,245.5 190.5,246.5C 190.427,248.027 191.094,249.027 192.5,249.5C 193.674,250.514 194.34,251.847 194.5,253.5C 194.263,254.791 194.596,255.791 195.5,256.5C 198.496,265.187 197.829,273.52 193.5,281.5C 192.094,281.973 191.427,282.973 191.5,284.5C 187.211,290.815 181.544,295.482 174.5,298.5C 174.67,297.178 174.337,296.011 173.5,295C 178.74,292.015 182.74,287.848 185.5,282.5C 182.941,282.613 180.274,282.113 177.5,281C 178.081,280.107 178.415,279.107 178.5,278C 178.461,276.106 177.794,275.106 176.5,275C 176.892,273.989 177.559,273.489 178.5,273.5C 177.515,271.902 177.349,270.235 178,268.5C 178.906,271.121 179.406,270.954 179.5,268C 179,265.5 178.5,263 178,260.5C 175.111,258.366 171.944,256.699 168.5,255.5C 167.833,255.833 167.167,256.167 166.5,256.5C 165.304,256.154 165.304,255.654 166.5,255C 164.285,254.83 162.285,254.163 160.5,253C 163.028,252.002 163.028,251.169 160.5,250.5C 159.353,250.818 158.519,251.484 158,252.5C 157.667,251.5 157.333,250.5 157,249.5C 155.004,249.004 153.337,248.004 152,246.5C 150.951,247.517 149.784,247.684 148.5,247C 148.833,246 149.167,245 149.5,244C 146.833,243.333 146.833,242.667 149.5,242C 145.892,238.4 141.726,235.567 137,233.5C 136.259,234.641 135.425,234.641 134.5,233.5C 133.289,234.274 133.289,235.107 134.5,236C 132.133,236.374 130.3,237.541 129,239.5C 128.5,239.333 128,239.167 127.5,239C 128.956,238.577 129.456,237.744 129,236.5C 128,236.833 127,237.167 126,237.5C 124.933,236.809 123.766,236.309 122.5,236C 124.932,234.913 124.598,234.413 121.5,234.5C 121.509,232.692 121.009,231.025 120,229.5C 119.085,230.328 118.419,231.328 118,232.5C 114.586,229.415 113.919,225.415 116,220.5C 116.763,223.063 117.263,223.063 117.5,220.5C 116.089,218.24 114.422,216.074 112.5,214C 116.865,213.725 117.532,212.225 114.5,209.5C 115.11,208.609 115.443,207.609 115.5,206.5C 117.833,204.833 119.833,202.833 121.5,200.5C 122.71,200.068 123.71,199.401 124.5,198.5C 126.153,198.34 127.486,197.674 128.5,196.5C 128.833,196.5 129.167,196.5 129.5,196.5C 133.162,196.277 136.495,195.277 139.5,193.5C 150.131,192.121 160.464,193.454 170.5,197.5 Z" />
    </g>
    <g>
        <path style="opacity:1" fill="#0d0d0d"
            d="M 204.5,191.5 C 203.262,191.81 203.262,192.31 204.5,193C 205.094,193.464 205.761,193.631 206.5,193.5C 208.153,193.66 209.486,194.326 210.5,195.5C 210.918,196.222 211.584,196.722 212.5,197C 215.817,197.498 219.15,197.665 222.5,197.5C 231.318,198.493 240.318,198.827 249.5,198.5C 253.5,198.5 257.5,198.5 261.5,198.5C 268.798,198.713 275.465,200.713 281.5,204.5C 281.833,205.5 282.5,206.167 283.5,206.5C 284.486,208.408 286.152,209.408 288.5,209.5C 289.5,211.167 290.833,212.5 292.5,213.5C 293.5,213.833 294.167,214.5 294.5,215.5C 294.427,217.027 295.094,218.027 296.5,218.5C 296.427,220.027 297.094,221.027 298.5,221.5C 298.5,221.833 298.5,222.167 298.5,222.5C 298.66,224.153 299.326,225.486 300.5,226.5C 300.294,229.495 300.96,232.162 302.5,234.5C 302.5,235.833 302.5,237.167 302.5,238.5C 302.5,240.5 302.5,242.5 302.5,244.5C 301.71,243.391 301.21,242.058 301,240.5C 298.784,243.342 297.784,246.342 298,249.5C 297.428,247.108 296.262,245.108 294.5,243.5C 295.712,240.987 294.712,239.487 291.5,239C 295.539,239.09 296.206,237.923 293.5,235.5C 290.579,238.219 289.912,241.386 291.5,245C 289.633,244.425 287.633,243.758 285.5,243C 286.552,241.881 287.719,241.381 289,241.5C 289.667,240.5 289.667,239.5 289,238.5C 288.667,238.833 288.333,239.167 288,239.5C 286.813,235.673 284.313,233.339 280.5,232.5C 279.522,229.869 278.522,227.202 277.5,224.5C 278.629,222.471 278.129,222.137 276,223.5C 274.117,222.347 273.284,220.681 273.5,218.5C 270.531,216.755 267.364,215.089 264,213.5C 262.237,213.975 260.57,214.642 259,215.5C 256.541,212.9 254.041,212.9 251.5,215.5C 247.705,215.181 244.205,214.181 241,212.5C 240.517,213.448 240.351,214.448 240.5,215.5C 237.927,215.148 235.594,215.648 233.5,217C 236.167,217.667 236.167,218.333 233.5,219C 236.544,219.359 236.878,220.026 234.5,221C 235.448,221.483 236.448,221.649 237.5,221.5C 237.232,223.099 237.566,224.432 238.5,225.5C 238.5,241.5 238.5,257.5 238.5,273.5C 242.167,273.5 245.833,273.5 249.5,273.5C 251.833,273.5 254.167,273.5 256.5,273.5C 258.857,273.337 261.19,273.503 263.5,274C 259.87,274.271 258.87,275.938 260.5,279C 257.5,279.333 254.5,279.667 251.5,280C 251,280.5 250.5,281 250,281.5C 245.881,280.224 241.881,278.558 238,276.5C 237.098,279.738 235.098,282.072 232,283.5C 229.186,282.314 228.353,283.147 229.5,286C 228.5,286.667 227.5,286.667 226.5,286C 226.665,284.883 226.998,283.716 227.5,282.5C 225.927,280.164 224.594,280.164 223.5,282.5C 221.297,279.891 220.297,276.891 220.5,273.5C 222.5,273.5 224.5,273.5 226.5,273.5C 226.915,271.253 227.582,269.086 228.5,267C 227.922,263.424 227.922,259.758 228.5,256C 228.865,250.786 227.532,246.119 224.5,242C 222.015,239.79 220.182,240.29 219,243.5C 218.333,242.833 217.667,242.167 217,241.5C 216.171,246.864 216.337,252.198 217.5,257.5C 220.73,258.709 221.396,260.709 219.5,263.5C 219.709,264.994 220.376,266.161 221.5,267C 220.552,267.483 219.552,267.649 218.5,267.5C 218.66,265.801 218.494,264.134 218,262.5C 215.696,264.431 213.862,266.764 212.5,269.5C 213.881,271.635 214.881,273.968 215.5,276.5C 217.196,278.525 218.863,280.525 220.5,282.5C 219.1,284.925 217.934,284.592 217,281.5C 216.08,284.308 216.913,286.475 219.5,288C 217.956,288.29 216.623,288.956 215.5,290C 216.833,291 216.833,292 215.5,293C 220.701,294.594 226.034,295.594 231.5,296C 226.649,296.174 221.982,296.674 217.5,297.5C 215.167,297.5 212.833,297.5 210.5,297.5C 209.181,266.039 207.848,234.706 206.5,203.5C 203.008,202.59 200.008,200.924 197.5,198.5C 196.274,195.135 194.608,192.635 192.5,191C 195.405,189.963 198.239,188.796 201,187.5C 202.376,188.705 203.542,190.038 204.5,191.5 Z" />
    </g>
    <g>
        <path style="opacity:0.224" fill="#b8b8b8"
            d="M 293.5,193.5 C 295.027,193.427 296.027,194.094 296.5,195.5C 294.973,195.573 293.973,194.906 293.5,193.5 Z" />
    </g>
    <g>
        <path style="opacity:0.005" fill="#e0e0e0"
            d="M 210.5,195.5 C 214.664,195.956 218.664,196.622 222.5,197.5C 219.15,197.665 215.817,197.498 212.5,197C 211.584,196.722 210.918,196.222 210.5,195.5 Z" />
    </g>
    <g>
        <path style="opacity:0.518" fill="#b9b9b9"
            d="M 128.5,196.5 C 127.486,197.674 126.153,198.34 124.5,198.5C 125.287,196.896 126.62,196.229 128.5,196.5 Z" />
    </g>
    <g>
        <path style="opacity:0.176" fill="#bdbdbd"
            d="M 170.5,197.5 C 172.553,197.402 174.22,198.069 175.5,199.5C 173.447,199.598 171.78,198.931 170.5,197.5 Z" />
    </g>
    <g>
        <path style="opacity:0.752" fill="#676767"
            d="M 249.5,197.5 C 249.5,197.833 249.5,198.167 249.5,198.5C 240.318,198.827 231.318,198.493 222.5,197.5C 231.439,197.232 240.439,197.232 249.5,197.5 Z" />
    </g>
    <g>
        <path style="opacity:0.557" fill="#878787"
            d="M 261.5,198.5 C 257.5,198.5 253.5,198.5 249.5,198.5C 249.5,198.167 249.5,197.833 249.5,197.5C 250.866,197.046 252.366,196.713 254,196.5C 256.607,197.123 259.107,197.79 261.5,198.5 Z" />
    </g>
    <g>
        <path style="opacity:0.506" fill="#989898"
            d="M 343.5,199.5 C 337.399,198.872 331.399,198.205 325.5,197.5C 330.897,197.785 336.23,197.451 341.5,196.5C 342.919,197.005 343.585,198.005 343.5,199.5 Z" />
    </g>
    <g>
        <path style="opacity:0.006" fill="#e7e7e7"
            d="M 124.5,198.5 C 123.71,199.401 122.71,200.068 121.5,200.5C 121.821,198.952 122.821,198.285 124.5,198.5 Z" />
    </g>
    <g>
        <path style="opacity:0.004" fill="#d4d4d4"
            d="M 301.5,197.5 C 302.906,197.973 303.573,198.973 303.5,200.5C 302.094,200.027 301.427,199.027 301.5,197.5 Z" />
    </g>
    <g>
        <path style="opacity:0.09" fill="#dcdcdc"
            d="M 343.5,199.5 C 344.906,199.973 345.573,200.973 345.5,202.5C 344.094,202.027 343.427,201.027 343.5,199.5 Z" />
    </g>
    <g>
        <path style="opacity:0.005" fill="#d8d8d8"
            d="M 121.5,200.5 C 119.833,202.833 117.833,204.833 115.5,206.5C 115.351,205.448 115.517,204.448 116,203.5C 117.506,201.826 119.339,200.826 121.5,200.5 Z" />
    </g>
    <g>
        <path style="opacity:0.004" fill="#c4c4c4"
            d="M 178.5,202.5 C 181.5,203.5 183.5,205.5 184.5,208.5C 182.167,206.833 180.167,204.833 178.5,202.5 Z" />
    </g>
    <g>
        <path style="opacity:1" fill="#111111"
            d="M 404.5,199.5 C 403.178,232.039 403.178,264.706 404.5,297.5C 396.209,298.433 388.042,298.767 380,298.5C 377.416,296.326 375.582,293.659 374.5,290.5C 374.573,288.973 373.906,287.973 372.5,287.5C 372.573,285.973 371.906,284.973 370.5,284.5C 368.782,282.777 367.449,280.777 366.5,278.5C 366.573,276.973 365.906,275.973 364.5,275.5C 363.662,275.158 363.328,274.492 363.5,273.5C 363.715,271.821 363.048,270.821 361.5,270.5C 360.075,269.078 359.075,267.411 358.5,265.5C 358.446,263.368 357.446,262.035 355.5,261.5C 355.5,261.167 355.5,260.833 355.5,260.5C 355.167,259.5 354.5,258.833 353.5,258.5C 352.662,258.158 352.328,257.492 352.5,256.5C 352.446,254.368 351.446,253.035 349.5,252.5C 349.573,250.973 348.906,249.973 347.5,249.5C 347.167,249.5 346.833,249.5 346.5,249.5C 346.672,248.508 346.338,247.842 345.5,247.5C 345.5,247.167 345.5,246.833 345.5,246.5C 345.343,245.127 345.51,243.793 346,242.5C 347.487,243.253 347.654,244.086 346.5,245C 347.76,246.113 348.927,246.28 350,245.5C 352.172,246.509 353.338,248.176 353.5,250.5C 354.5,250.5 355.5,250.5 356.5,250.5C 356.502,246.459 357.835,245.792 360.5,248.5C 359.975,249.192 359.308,249.692 358.5,250C 359.667,251.167 360.833,252.333 362,253.5C 362.333,253.167 362.667,252.833 363,252.5C 364.747,253.33 366.413,254.33 368,255.5C 369.602,254.241 369.436,252.908 367.5,251.5C 366.914,251.709 366.414,252.043 366,252.5C 365.598,251.128 365.098,249.795 364.5,248.5C 366.741,248.502 369.074,248.168 371.5,247.5C 370.167,246.5 370.167,245.5 371.5,244.5C 370.675,243.614 369.675,243.281 368.5,243.5C 368.719,242.325 368.386,241.325 367.5,240.5C 366.549,241.326 365.549,241.492 364.5,241C 366.063,240.241 367.063,239.074 367.5,237.5C 367.833,237.5 368.167,237.5 368.5,237.5C 368.738,239.404 369.738,240.738 371.5,241.5C 372.164,243.487 373.331,245.154 375,246.5C 375.5,230.17 375.667,213.837 375.5,197.5C 381.167,197.5 386.833,197.5 392.5,197.5C 395.402,197.732 398.402,197.398 401.5,196.5C 402.5,196.667 403.5,196.833 404.5,197C 405.774,197.977 405.774,198.811 404.5,199.5 Z" />
    </g>
    <g>
        <path style="opacity:1" fill="#141414"
            d="M 322.5,196.5 C 323.791,196.263 324.791,196.596 325.5,197.5C 331.399,198.205 337.399,198.872 343.5,199.5C 343.427,201.027 344.094,202.027 345.5,202.5C 346.338,202.842 346.672,203.508 346.5,204.5C 346.427,206.027 347.094,207.027 348.5,207.5C 348.427,209.027 349.094,210.027 350.5,210.5C 350.427,212.027 351.094,213.027 352.5,213.5C 352.427,215.027 353.094,216.027 354.5,216.5C 354.738,218.404 355.738,219.738 357.5,220.5C 358.338,220.842 358.672,221.508 358.5,222.5C 358.738,224.404 359.738,225.738 361.5,226.5C 361.427,228.027 362.094,229.027 363.5,229.5C 364.674,230.514 365.34,231.847 365.5,233.5C 365.733,235.062 366.4,236.395 367.5,237.5C 367.063,239.074 366.063,240.241 364.5,241C 365.549,241.492 366.549,241.326 367.5,240.5C 368.386,241.325 368.719,242.325 368.5,243.5C 369.675,243.281 370.675,243.614 371.5,244.5C 370.167,245.5 370.167,246.5 371.5,247.5C 369.074,248.168 366.741,248.502 364.5,248.5C 365.098,249.795 365.598,251.128 366,252.5C 366.414,252.043 366.914,251.709 367.5,251.5C 369.436,252.908 369.602,254.241 368,255.5C 366.413,254.33 364.747,253.33 363,252.5C 362.667,252.833 362.333,253.167 362,253.5C 360.833,252.333 359.667,251.167 358.5,250C 359.308,249.692 359.975,249.192 360.5,248.5C 357.835,245.792 356.502,246.459 356.5,250.5C 355.5,250.5 354.5,250.5 353.5,250.5C 353.338,248.176 352.172,246.509 350,245.5C 348.927,246.28 347.76,246.113 346.5,245C 347.654,244.086 347.487,243.253 346,242.5C 345.51,243.793 345.343,245.127 345.5,246.5C 345.167,246.5 344.833,246.5 344.5,246.5C 344.5,245.833 344.5,245.167 344.5,244.5C 344.539,243.244 344.039,242.244 343,241.5C 342.171,259.005 342.338,276.338 343.5,293.5C 344.11,294.391 344.443,295.391 344.5,296.5C 346.279,298.344 348.612,299.01 351.5,298.5C 358.051,299.941 360.217,303.941 358,310.5C 356.924,313.079 355.091,314.746 352.5,315.5C 349.5,315.5 346.5,315.5 343.5,315.5C 341.167,315.167 339.833,313.833 339.5,311.5C 339.662,309.473 339.495,307.473 339,305.5C 338.329,304.748 337.496,304.414 336.5,304.5C 326.354,302.862 316.354,303.528 306.5,306.5C 303.972,307.935 301.305,308.935 298.5,309.5C 288.129,314.071 277.463,318.071 266.5,321.5C 264.744,322.552 264.077,324.219 264.5,326.5C 264.672,327.492 264.338,328.158 263.5,328.5C 262.662,328.842 262.328,329.508 262.5,330.5C 262.5,330.833 262.5,331.167 262.5,331.5C 261.29,331.932 260.29,332.599 259.5,333.5C 252.244,335.277 248.244,332.277 247.5,324.5C 247.511,322.955 247.844,321.622 248.5,320.5C 250.341,319.598 251.674,318.264 252.5,316.5C 255.365,315.217 258.365,315.217 261.5,316.5C 267.297,313.266 273.297,310.599 279.5,308.5C 281.027,308.573 282.027,307.906 282.5,306.5C 288.498,302.937 294.832,299.937 301.5,297.5C 302.906,297.027 303.573,296.027 303.5,294.5C 305.262,293.738 306.262,292.404 306.5,290.5C 307.907,288.692 309.074,286.692 310,284.5C 310.5,258.835 310.667,233.169 310.5,207.5C 310.573,205.973 309.906,204.973 308.5,204.5C 310.817,202.103 312.817,202.603 314.5,206C 313.366,207.016 313.699,207.683 315.5,208C 313.071,208.451 312.904,209.285 315,210.5C 316.706,209.692 317.539,208.359 317.5,206.5C 318.873,206.657 320.207,206.49 321.5,206C 320.624,203.624 318.958,202.124 316.5,201.5C 317.035,199.729 317.869,199.396 319,200.5C 320.113,199.24 320.28,198.073 319.5,197C 320.448,196.517 321.448,196.351 322.5,196.5 Z M 328.5,295.5 C 328.973,296.906 329.973,297.573 331.5,297.5C 331.842,298.338 332.508,298.672 333.5,298.5C 330.572,300.081 328.239,299.415 326.5,296.5C 327.167,296.167 327.833,295.833 328.5,295.5 Z" />
    </g>
    <g>
        <path style="opacity:0.004" fill="#d6d6d6"
            d="M 281.5,204.5 C 283.027,204.427 284.027,205.094 284.5,206.5C 284.167,206.5 283.833,206.5 283.5,206.5C 282.5,206.167 281.833,205.5 281.5,204.5 Z" />
    </g>
    <g>
        <path style="opacity:0.329" fill="#c1c1c1"
            d="M 307.5,204.5 C 307.833,204.5 308.167,204.5 308.5,204.5C 309.906,204.973 310.573,205.973 310.5,207.5C 309.167,206.833 308.167,205.833 307.5,204.5 Z" />
    </g>
    <g>
        <path style="opacity:0.18" fill="#c5c5c5"
            d="M 346.5,204.5 C 347.906,204.973 348.573,205.973 348.5,207.5C 347.094,207.027 346.427,206.027 346.5,204.5 Z" />
    </g>
    <g>
        <path style="opacity:0.99" fill="#565656"
            d="M 283.5,206.5 C 283.833,206.5 284.167,206.5 284.5,206.5C 286.23,207.026 287.564,208.026 288.5,209.5C 286.152,209.408 284.486,208.408 283.5,206.5 Z" />
    </g>
    <g>
        <path style="opacity:0.424" fill="#949494"
            d="M 115.5,206.5 C 115.443,207.609 115.11,208.609 114.5,209.5C 114.167,209.5 113.833,209.5 113.5,209.5C 113.427,207.973 114.094,206.973 115.5,206.5 Z" />
    </g>
    <g>
        <path style="opacity:0.004" fill="#cacaca"
            d="M 288.5,209.5 C 290.833,209.833 292.167,211.167 292.5,213.5C 290.833,212.5 289.5,211.167 288.5,209.5 Z" />
    </g>
    <g>
        <path style="opacity:0.176" fill="#cccccc"
            d="M 348.5,207.5 C 349.906,207.973 350.573,208.973 350.5,210.5C 349.094,210.027 348.427,209.027 348.5,207.5 Z" />
    </g>
    <g>
        <path style="opacity:0.576" fill="#989898"
            d="M 184.5,208.5 C 186.262,209.262 187.262,210.596 187.5,212.5C 185.738,211.738 184.738,210.404 184.5,208.5 Z" />
    </g>
    <g>
        <path style="opacity:0.075" fill="#d7d6d6"
            d="M 113.5,209.5 C 113.573,211.027 112.906,212.027 111.5,212.5C 111.427,210.973 112.094,209.973 113.5,209.5 Z" />
    </g>
    <g>
        <path style="opacity:1" fill="#141414"
            d="M 302.5,244.5 C 302.65,253.857 302.317,263.191 301.5,272.5C 297.013,283.153 289.346,290.653 278.5,295C 272.434,296.696 266.268,297.862 260,298.5C 256.189,298.181 252.355,298.181 248.5,298.5C 247.211,297.499 245.878,297.666 244.5,299C 244.957,299.414 245.291,299.914 245.5,300.5C 242.734,301.535 242.068,303.201 243.5,305.5C 241.239,311.319 238.239,316.652 234.5,321.5C 233.094,321.973 232.427,322.973 232.5,324.5C 230.582,329.343 227.916,333.677 224.5,337.5C 223.094,337.973 222.427,338.973 222.5,340.5C 222.5,341.167 222.167,341.5 221.5,341.5C 220.883,341.611 220.383,341.944 220,342.5C 219.503,344.81 219.337,347.143 219.5,349.5C 218.294,354.855 214.961,357.021 209.5,356C 207.509,355.626 205.842,354.793 204.5,353.5C 204.027,352.094 203.027,351.427 201.5,351.5C 201.027,350.094 200.027,349.427 198.5,349.5C 199.183,347.824 200.517,347.157 202.5,347.5C 204.344,345.721 205.01,343.388 204.5,340.5C 207.015,337.433 210.349,336.099 214.5,336.5C 215.906,336.027 216.573,335.027 216.5,333.5C 216.66,331.847 217.326,330.514 218.5,329.5C 219.906,329.027 220.573,328.027 220.5,326.5C 221.383,323.296 223.05,320.629 225.5,318.5C 226.906,318.027 227.573,317.027 227.5,315.5C 227.328,314.508 227.662,313.842 228.5,313.5C 229.906,313.027 230.573,312.027 230.5,310.5C 231.906,310.027 232.573,309.027 232.5,307.5C 233.906,307.027 234.573,306.027 234.5,304.5C 236.262,303.738 237.262,302.404 237.5,300.5C 238.404,299.791 238.737,298.791 238.5,297.5C 233.167,297.5 227.833,297.5 222.5,297.5C 220.833,298.833 219.167,298.833 217.5,297.5C 221.982,296.674 226.649,296.174 231.5,296C 226.034,295.594 220.701,294.594 215.5,293C 216.833,292 216.833,291 215.5,290C 216.623,288.956 217.956,288.29 219.5,288C 216.913,286.475 216.08,284.308 217,281.5C 217.934,284.592 219.1,284.925 220.5,282.5C 218.863,280.525 217.196,278.525 215.5,276.5C 214.881,273.968 213.881,271.635 212.5,269.5C 213.862,266.764 215.696,264.431 218,262.5C 218.494,264.134 218.66,265.801 218.5,267.5C 219.552,267.649 220.552,267.483 221.5,267C 220.376,266.161 219.709,264.994 219.5,263.5C 221.396,260.709 220.73,258.709 217.5,257.5C 216.337,252.198 216.171,246.864 217,241.5C 217.667,242.167 218.333,242.833 219,243.5C 220.182,240.29 222.015,239.79 224.5,242C 227.532,246.119 228.865,250.786 228.5,256C 227.922,259.758 227.922,263.424 228.5,267C 227.582,269.086 226.915,271.253 226.5,273.5C 224.5,273.5 222.5,273.5 220.5,273.5C 220.297,276.891 221.297,279.891 223.5,282.5C 224.594,280.164 225.927,280.164 227.5,282.5C 226.998,283.716 226.665,284.883 226.5,286C 227.5,286.667 228.5,286.667 229.5,286C 228.353,283.147 229.186,282.314 232,283.5C 235.098,282.072 237.098,279.738 238,276.5C 241.881,278.558 245.881,280.224 250,281.5C 250.5,281 251,280.5 251.5,280C 254.5,279.667 257.5,279.333 260.5,279C 258.87,275.938 259.87,274.271 263.5,274C 261.19,273.503 258.857,273.337 256.5,273.5C 260.083,272.614 263.75,271.614 267.5,270.5C 270.937,268.977 272.937,266.311 273.5,262.5C 274.167,259.833 274.833,257.167 275.5,254.5C 276.163,252.527 276.496,250.361 276.5,248C 276.621,244.218 275.954,240.718 274.5,237.5C 274.5,237.167 274.5,236.833 274.5,236.5C 275.124,236.083 275.457,235.416 275.5,234.5C 274.995,231.219 273.995,227.886 272.5,224.5C 270.801,224.527 269.467,225.194 268.5,226.5C 268.027,225.094 267.027,224.427 265.5,224.5C 263.214,224.405 261.214,223.738 259.5,222.5C 252.687,221.509 245.687,221.175 238.5,221.5C 238.5,222.833 238.5,224.167 238.5,225.5C 237.566,224.432 237.232,223.099 237.5,221.5C 236.448,221.649 235.448,221.483 234.5,221C 236.878,220.026 236.544,219.359 233.5,219C 236.167,218.333 236.167,217.667 233.5,217C 235.594,215.648 237.927,215.148 240.5,215.5C 240.351,214.448 240.517,213.448 241,212.5C 244.205,214.181 247.705,215.181 251.5,215.5C 254.041,212.9 256.541,212.9 259,215.5C 260.57,214.642 262.237,213.975 264,213.5C 267.364,215.089 270.531,216.755 273.5,218.5C 273.284,220.681 274.117,222.347 276,223.5C 278.129,222.137 278.629,222.471 277.5,224.5C 278.522,227.202 279.522,229.869 280.5,232.5C 284.313,233.339 286.813,235.673 288,239.5C 288.333,239.167 288.667,238.833 289,238.5C 289.667,239.5 289.667,240.5 289,241.5C 287.719,241.381 286.552,241.881 285.5,243C 287.633,243.758 289.633,244.425 291.5,245C 289.912,241.386 290.579,238.219 293.5,235.5C 296.206,237.923 295.539,239.09 291.5,239C 294.712,239.487 295.712,240.987 294.5,243.5C 296.262,245.108 297.428,247.108 298,249.5C 297.784,246.342 298.784,243.342 301,240.5C 301.21,242.058 301.71,243.391 302.5,244.5 Z" />
    </g>
    <g>
        <path style="opacity:0.275" fill="#bcbcbc"
            d="M 350.5,210.5 C 351.906,210.973 352.573,211.973 352.5,213.5C 351.094,213.027 350.427,212.027 350.5,210.5 Z" />
    </g>
    <g>
        <path style="opacity:0.404" fill="#cecece"
            d="M 111.5,213.5 C 111.34,215.153 110.674,216.486 109.5,217.5C 109.229,215.62 109.896,214.287 111.5,213.5 Z" />
    </g>
    <g>
        <path style="opacity:0.229" fill="#d8d8d8"
            d="M 392.5,197.5 C 386.833,197.5 381.167,197.5 375.5,197.5C 375.667,213.837 375.5,230.17 375,246.5C 373.331,245.154 372.164,243.487 371.5,241.5C 372.222,241.082 372.722,240.416 373,239.5C 373.333,240.833 373.667,242.167 374,243.5C 374.5,227.837 374.667,212.17 374.5,196.5C 380.69,196.177 386.69,196.51 392.5,197.5 Z" />
    </g>
    <g>
        <path style="opacity:1" fill="#161616"
            d="M 113.5,209.5 C 113.833,209.5 114.167,209.5 114.5,209.5C 117.532,212.225 116.865,213.725 112.5,214C 114.422,216.074 116.089,218.24 117.5,220.5C 117.263,223.063 116.763,223.063 116,220.5C 113.919,225.415 114.586,229.415 118,232.5C 118.419,231.328 119.085,230.328 120,229.5C 121.009,231.025 121.509,232.692 121.5,234.5C 124.598,234.413 124.932,234.913 122.5,236C 123.766,236.309 124.933,236.809 126,237.5C 127,237.167 128,236.833 129,236.5C 129.456,237.744 128.956,238.577 127.5,239C 128,239.167 128.5,239.333 129,239.5C 130.3,237.541 132.133,236.374 134.5,236C 133.289,235.107 133.289,234.274 134.5,233.5C 135.425,234.641 136.259,234.641 137,233.5C 141.726,235.567 145.892,238.4 149.5,242C 146.833,242.667 146.833,243.333 149.5,244C 149.167,245 148.833,246 148.5,247C 149.784,247.684 150.951,247.517 152,246.5C 153.337,248.004 155.004,249.004 157,249.5C 157.333,250.5 157.667,251.5 158,252.5C 158.519,251.484 159.353,250.818 160.5,250.5C 163.028,251.169 163.028,252.002 160.5,253C 162.285,254.163 164.285,254.83 166.5,255C 165.304,255.654 165.304,256.154 166.5,256.5C 167.167,256.167 167.833,255.833 168.5,255.5C 171.944,256.699 175.111,258.366 178,260.5C 178.5,263 179,265.5 179.5,268C 179.406,270.954 178.906,271.121 178,268.5C 177.349,270.235 177.515,271.902 178.5,273.5C 177.559,273.489 176.892,273.989 176.5,275C 177.794,275.106 178.461,276.106 178.5,278C 178.415,279.107 178.081,280.107 177.5,281C 180.274,282.113 182.941,282.613 185.5,282.5C 182.74,287.848 178.74,292.015 173.5,295C 174.337,296.011 174.67,297.178 174.5,298.5C 171.158,300.335 167.491,301.502 163.5,302C 154.99,302.823 146.656,302.657 138.5,301.5C 136.485,300.076 134.152,299.41 131.5,299.5C 131.167,299.5 130.833,299.5 130.5,299.5C 129.32,297.087 127.32,296.087 124.5,296.5C 119.533,294.6 115.533,290.933 112.5,285.5C 112.511,283.983 113.177,282.816 114.5,282C 113.809,280.933 113.309,279.766 113,278.5C 112.184,279.823 111.017,280.489 109.5,280.5C 107.718,276.371 106.718,272.038 106.5,267.5C 106.5,266.5 106.5,265.5 106.5,264.5C 114.833,264.5 123.167,264.5 131.5,264.5C 132.363,266.421 133.029,268.421 133.5,270.5C 133.427,272.027 134.094,273.027 135.5,273.5C 135.833,275.833 137.167,277.167 139.5,277.5C 141.574,278.514 143.574,279.514 145.5,280.5C 147.304,281.162 149.304,281.495 151.5,281.5C 154.527,281.713 157.193,281.047 159.5,279.5C 165.248,275.591 167.248,270.257 165.5,263.5C 165.5,262.167 164.833,261.5 163.5,261.5C 154.124,260.092 144.791,258.425 135.5,256.5C 133.898,254.926 131.898,254.259 129.5,254.5C 126.843,254.065 124.509,253.065 122.5,251.5C 122.027,250.094 121.027,249.427 119.5,249.5C 118.738,247.738 117.404,246.738 115.5,246.5C 112.479,243.794 110.479,240.461 109.5,236.5C 109.737,235.209 109.404,234.209 108.5,233.5C 107.285,229.967 107.285,226.301 108.5,222.5C 109.404,221.791 109.737,220.791 109.5,219.5C 109.5,218.833 109.5,218.167 109.5,217.5C 110.674,216.486 111.34,215.153 111.5,213.5C 111.5,213.167 111.5,212.833 111.5,212.5C 112.906,212.027 113.573,211.027 113.5,209.5 Z" />
    </g>
    <g>
        <path style="opacity:0.294" fill="#b4b4b4"
            d="M 352.5,213.5 C 353.906,213.973 354.573,214.973 354.5,216.5C 353.094,216.027 352.427,215.027 352.5,213.5 Z" />
    </g>
    <g>
        <path style="opacity:0.004" fill="#dfdfdf"
            d="M 143.5,215.5 C 143.027,216.906 142.027,217.573 140.5,217.5C 140.973,216.094 141.973,215.427 143.5,215.5 Z" />
    </g>
    <g>
        <path style="opacity:0.486" fill="#b8b8b8"
            d="M 294.5,215.5 C 295.906,215.973 296.573,216.973 296.5,218.5C 295.094,218.027 294.427,217.027 294.5,215.5 Z" />
    </g>
    <g>
        <path style="opacity:0.725" fill="#a4a4a4"
            d="M 354.5,216.5 C 356.262,217.262 357.262,218.596 357.5,220.5C 355.738,219.738 354.738,218.404 354.5,216.5 Z" />
    </g>
    <g>
        <path style="opacity:0.004" fill="#d0d0d0"
            d="M 163.5,219.5 C 164.906,219.973 165.573,220.973 165.5,222.5C 164.094,222.027 163.427,221.027 163.5,219.5 Z" />
    </g>
    <g>
        <path style="opacity:0.227" fill="#b5b5b5"
            d="M 296.5,218.5 C 297.906,218.973 298.573,219.973 298.5,221.5C 297.094,221.027 296.427,220.027 296.5,218.5 Z" />
    </g>
    <g>
        <path style="opacity:0.475" fill="#b6b6b6"
            d="M 109.5,219.5 C 109.737,220.791 109.404,221.791 108.5,222.5C 108.062,222.565 107.728,222.399 107.5,222C 108.066,221.005 108.733,220.172 109.5,219.5 Z" />
    </g>
    <g>
        <path style="opacity:0.534" fill="#737375"
            d="M 206.5,203.5 C 207.848,234.706 209.181,266.039 210.5,297.5C 209.603,298.598 208.77,298.598 208,297.5C 207.826,266.095 207.326,234.762 206.5,203.5 Z" />
    </g>
    <g>
        <path style="opacity:0.996" fill="#313131"
            d="M 274.5,236.5 C 273.031,232.904 271.031,229.57 268.5,226.5C 269.467,225.194 270.801,224.527 272.5,224.5C 273.995,227.886 274.995,231.219 275.5,234.5C 275.457,235.416 275.124,236.083 274.5,236.5 Z" />
    </g>
    <g>
        <path style="opacity:0.051" fill="#c8c8c8"
            d="M 298.5,222.5 C 300.104,223.287 300.771,224.62 300.5,226.5C 299.326,225.486 298.66,224.153 298.5,222.5 Z" />
    </g>
    <g>
        <path style="opacity:0.537" fill="#9c9b9b"
            d="M 358.5,222.5 C 360.262,223.262 361.262,224.596 361.5,226.5C 359.738,225.738 358.738,224.404 358.5,222.5 Z" />
    </g>
    <g>
        <path style="opacity:0.239" fill="#bebebe"
            d="M 265.5,224.5 C 267.027,224.427 268.027,225.094 268.5,226.5C 266.973,226.573 265.973,225.906 265.5,224.5 Z" />
    </g>
    <g>
        <path style="opacity:0.004" fill="#fcfdfc"
            d="M 138.5,227.5 C 139.833,228.167 139.833,228.167 138.5,227.5 Z" />
    </g>
    <g>
        <path style="opacity:0.524" fill="#8f8f8f"
            d="M 191.5,222.5 C 192.568,224.672 193.068,227.005 193,229.5C 184.667,228.167 176.333,228.167 168,229.5C 167.536,228.906 167.369,228.239 167.5,227.5C 175.5,227.5 183.5,227.5 191.5,227.5C 191.5,225.833 191.5,224.167 191.5,222.5 Z" />
    </g>
    <g>
        <path style="opacity:0.239" fill="#bfbfbf"
            d="M 361.5,226.5 C 362.906,226.973 363.573,227.973 363.5,229.5C 362.094,229.027 361.427,228.027 361.5,226.5 Z" />
    </g>
    <g>
        <path style="opacity:0.349" fill="#a9a9a9"
            d="M 300.5,226.5 C 301.768,228.905 302.435,231.572 302.5,234.5C 300.96,232.162 300.294,229.495 300.5,226.5 Z" />
    </g>
    <g>
        <path style="opacity:0.876" fill="#6d6d6d"
            d="M 404.5,199.5 C 405.198,231.781 405.198,264.447 404.5,297.5C 403.178,264.706 403.178,232.039 404.5,199.5 Z" />
    </g>
    <g>
        <path style="opacity:0.125" fill="#c4c4c4"
            d="M 108.5,233.5 C 109.404,234.209 109.737,235.209 109.5,236.5C 108.761,236.631 108.094,236.464 107.5,236C 108.252,235.329 108.586,234.496 108.5,233.5 Z" />
    </g>
    <g>
        <path style="opacity:0.553" fill="#9b9b9b"
            d="M 365.5,233.5 C 367.262,234.262 368.262,235.596 368.5,237.5C 368.167,237.5 367.833,237.5 367.5,237.5C 366.4,236.395 365.733,235.062 365.5,233.5 Z" />
    </g>
    <g>
        <path style="opacity:0.714" fill="#a0a0a0"
            d="M 368.5,237.5 C 370.262,238.262 371.262,239.596 371.5,241.5C 369.738,240.738 368.738,239.404 368.5,237.5 Z" />
    </g>
    <g>
        <path style="opacity:0.91" fill="#8c8c8c"
            d="M 184.5,241.5 C 186.23,242.026 187.564,243.026 188.5,244.5C 186.368,244.446 185.035,243.446 184.5,241.5 Z" />
    </g>
    <g>
        <path style="opacity:0.475" fill="#999999"
            d="M 274.5,237.5 C 275.954,240.718 276.621,244.218 276.5,248C 276.496,250.361 276.163,252.527 275.5,254.5C 275.553,248.804 275.22,243.138 274.5,237.5 Z" />
    </g>
    <g>
        <path style="opacity:0.004" fill="#fbfcfb"
            d="M 304.5,244.5 C 305.833,245.167 305.833,245.167 304.5,244.5 Z" />
    </g>
    <g>
        <path style="opacity:0.005" fill="#fcfcfc"
            d="M 303.5,245.5 C 303.833,245.5 304.167,245.5 304.5,245.5C 307.434,250.934 307.1,255.268 303.5,258.5C 303.5,254.167 303.5,249.833 303.5,245.5 Z" />
    </g>
    <g>
        <path style="opacity:0.725" fill="#a0a0a0"
            d="M 115.5,246.5 C 117.404,246.738 118.738,247.738 119.5,249.5C 117.596,249.262 116.262,248.262 115.5,246.5 Z" />
    </g>
    <g>
        <path style="opacity:0.18" fill="#cccccc"
            d="M 190.5,246.5 C 191.906,246.973 192.573,247.973 192.5,249.5C 191.094,249.027 190.427,248.027 190.5,246.5 Z" />
    </g>
    <g>
        <path style="opacity:0.224" fill="#bababa"
            d="M 119.5,249.5 C 121.027,249.427 122.027,250.094 122.5,251.5C 120.973,251.573 119.973,250.906 119.5,249.5 Z" />
    </g>
    <g>
        <path style="opacity:0.008" fill="#dadada"
            d="M 347.5,249.5 C 348.906,249.973 349.573,250.973 349.5,252.5C 348.094,252.027 347.427,251.027 347.5,249.5 Z" />
    </g>
    <g>
        <path style="opacity:0.945" fill="#848484"
            d="M 349.5,252.5 C 351.446,253.035 352.446,254.368 352.5,256.5C 351.026,255.564 350.026,254.23 349.5,252.5 Z" />
    </g>
    <g>
        <path style="opacity:0.018" fill="#f3f3f3"
            d="M 259.5,222.5 C 252.833,222.5 246.167,222.5 239.5,222.5C 239.5,239.167 239.5,255.833 239.5,272.5C 243.042,272.187 246.375,272.521 249.5,273.5C 245.833,273.5 242.167,273.5 238.5,273.5C 238.5,257.5 238.5,241.5 238.5,225.5C 238.5,224.167 238.5,222.833 238.5,221.5C 245.687,221.175 252.687,221.509 259.5,222.5 Z" />
    </g>
    <g>
        <path style="opacity:0.714" fill="#a9a9a9"
            d="M 129.5,254.5 C 131.898,254.259 133.898,254.926 135.5,256.5C 134.5,256.5 133.5,256.5 132.5,256.5C 131.5,255.833 130.5,255.167 129.5,254.5 Z" />
    </g>
    <g>
        <path style="opacity:0.043" fill="#e7e7e7"
            d="M 194.5,253.5 C 195.267,254.172 195.934,255.005 196.5,256C 196.272,256.399 195.938,256.565 195.5,256.5C 194.596,255.791 194.263,254.791 194.5,253.5 Z" />
    </g>
    <g>
        <path style="opacity:0.004" fill="#fbfcfb"
            d="M 132.5,256.5 C 131.833,257.167 131.833,257.167 132.5,256.5 Z" />
    </g>
    <g>
        <path style="opacity:0.004" fill="#d2d2d2"
            d="M 353.5,258.5 C 354.5,258.833 355.167,259.5 355.5,260.5C 354.167,260.5 353.5,259.833 353.5,258.5 Z" />
    </g>
    <g>
        <path style="opacity:0.553" fill="#b3b3b3"
            d="M 163.5,261.5 C 164.833,261.5 165.5,262.167 165.5,263.5C 164.5,263.167 163.833,262.5 163.5,261.5 Z" />
    </g>
    <g>
        <path style="opacity:0.925" fill="#898989"
            d="M 355.5,261.5 C 357.446,262.035 358.446,263.368 358.5,265.5C 357.026,264.564 356.026,263.23 355.5,261.5 Z" />
    </g>
    <g>
        <path style="opacity:0.241" fill="#dadada"
            d="M 131.5,264.5 C 123.167,264.5 114.833,264.5 106.5,264.5C 106.5,265.5 106.5,266.5 106.5,267.5C 105.566,266.432 105.232,265.099 105.5,263.5C 114.349,263.174 123.016,263.507 131.5,264.5 Z" />
    </g>
    <g>
        <path style="opacity:0.071" fill="#ebebeb"
            d="M 344.5,244.5 C 343.167,245.167 343.167,245.833 344.5,246.5C 344.5,247.167 344.833,247.5 345.5,247.5C 345.328,248.492 345.662,249.158 346.5,249.5C 345.815,251.414 345.315,253.414 345,255.5C 344.667,253.167 344.333,250.833 344,248.5C 343.5,263.496 343.333,278.496 343.5,293.5C 342.338,276.338 342.171,259.005 343,241.5C 344.039,242.244 344.539,243.244 344.5,244.5 Z" />
    </g>
    <g>
        <path style="opacity:0.616" fill="#acacac"
            d="M 273.5,262.5 C 272.937,266.311 270.937,268.977 267.5,270.5C 269.512,267.795 271.512,265.128 273.5,262.5 Z" />
    </g>
    <g>
        <path style="opacity:0.239" fill="#9c9c9c"
            d="M 302.5,238.5 C 303.468,240.607 303.802,242.941 303.5,245.5C 303.5,249.833 303.5,254.167 303.5,258.5C 303.771,263.434 303.104,268.1 301.5,272.5C 302.317,263.191 302.65,253.857 302.5,244.5C 302.5,242.5 302.5,240.5 302.5,238.5 Z" />
    </g>
    <g>
        <path style="opacity:0.945" fill="#7e7e7e"
            d="M 361.5,270.5 C 363.048,270.821 363.715,271.821 363.5,273.5C 362.599,272.71 361.932,271.71 361.5,270.5 Z" />
    </g>
    <g>
        <path style="opacity:0.184" fill="#c4c4c4"
            d="M 133.5,270.5 C 134.906,270.973 135.573,271.973 135.5,273.5C 134.094,273.027 133.427,272.027 133.5,270.5 Z" />
    </g>
    <g>
        <path style="opacity:0.412" fill="#bfbfbf"
            d="M 135.5,273.5 C 137.167,274.5 138.5,275.833 139.5,277.5C 137.167,277.167 135.833,275.833 135.5,273.5 Z" />
    </g>
    <g>
        <path style="opacity:0.012" fill="#d2d2d2"
            d="M 364.5,275.5 C 365.906,275.973 366.573,276.973 366.5,278.5C 365.094,278.027 364.427,277.027 364.5,275.5 Z" />
    </g>
    <g>
        <path style="opacity:0.993" fill="#444444"
            d="M 112.5,285.5 C 112.167,285.5 111.833,285.5 111.5,285.5C 111.107,283.716 110.441,282.05 109.5,280.5C 111.017,280.489 112.184,279.823 113,278.5C 113.309,279.766 113.809,280.933 114.5,282C 113.177,282.816 112.511,283.983 112.5,285.5 Z" />
    </g>
    <g>
        <path style="opacity:0.237" fill="#a0a0a0"
            d="M 159.5,279.5 C 157.193,281.047 154.527,281.713 151.5,281.5C 149.304,281.495 147.304,281.162 145.5,280.5C 150.214,280.647 154.881,280.314 159.5,279.5 Z" />
    </g>
    <g>
        <path style="opacity:0.004" fill="#dbdbdb"
            d="M 193.5,281.5 C 193.573,283.027 192.906,284.027 191.5,284.5C 191.427,282.973 192.094,281.973 193.5,281.5 Z" />
    </g>
    <g>
        <path style="opacity:0.004" fill="#fcfdfc"
            d="M 111.5,285.5 C 110.833,286.167 110.833,286.167 111.5,285.5 Z" />
    </g>
    <g>
        <path style="opacity:0.004" fill="#d7d7d7"
            d="M 370.5,284.5 C 371.906,284.973 372.573,285.973 372.5,287.5C 371.094,287.027 370.427,286.027 370.5,284.5 Z" />
    </g>
    <g>
        <path style="opacity:0.008" fill="#d9d9d9"
            d="M 372.5,287.5 C 373.906,287.973 374.573,288.973 374.5,290.5C 373.094,290.027 372.427,289.027 372.5,287.5 Z" />
    </g>
    <g>
        <path style="opacity:0.776" fill="#959595"
            d="M 306.5,290.5 C 306.262,292.404 305.262,293.738 303.5,294.5C 303.738,292.596 304.738,291.262 306.5,290.5 Z" />
    </g>
    <g>
        <path style="opacity:0.988" fill="#696969"
            d="M 124.5,296.5 C 127.32,296.087 129.32,297.087 130.5,299.5C 128.181,299.008 126.181,298.008 124.5,296.5 Z" />
    </g>
    <g>
        <path style="opacity:0.341" fill="#a8a8a8"
            d="M 303.5,294.5 C 303.573,296.027 302.906,297.027 301.5,297.5C 301.427,295.973 302.094,294.973 303.5,294.5 Z" />
    </g>
    <g>
        <path style="opacity:0.259" fill="#b8b8b8"
            d="M 328.5,295.5 C 330.027,295.427 331.027,296.094 331.5,297.5C 329.973,297.573 328.973,296.906 328.5,295.5 Z" />
    </g>
    <g>
        <path style="opacity:0.006" fill="#f5f5f5"
            d="M 222.5,297.5 C 227.833,297.5 233.167,297.5 238.5,297.5C 238.737,298.791 238.404,299.791 237.5,300.5C 232.749,298.859 227.749,297.859 222.5,297.5 Z" />
    </g>
    <g>
        <path style="opacity:0.995" fill="#565555"
            d="M 248.5,298.5 C 247.214,301.117 245.547,303.45 243.5,305.5C 242.068,303.201 242.734,301.535 245.5,300.5C 245.291,299.914 244.957,299.414 244.5,299C 245.878,297.666 247.211,297.499 248.5,298.5 Z" />
    </g>
    <g>
        <path style="opacity:0.416" fill="#b8b8b8"
            d="M 344.5,296.5 C 346.952,297.065 349.285,297.732 351.5,298.5C 348.612,299.01 346.279,298.344 344.5,296.5 Z" />
    </g>
    <g>
        <path style="opacity:0.018" fill="#c4c4c4"
            d="M 326.5,296.5 C 328.239,299.415 330.572,300.081 333.5,298.5C 335.14,299.32 336.807,300.153 338.5,301C 333.669,301.084 329.003,300.584 324.5,299.5C 323.761,299.631 323.094,299.464 322.5,299C 323.693,297.905 325.027,297.072 326.5,296.5 Z" />
    </g>
    <g>
        <path style="opacity:0.659" fill="#7f7f7f"
            d="M 131.5,299.5 C 134.152,299.41 136.485,300.076 138.5,301.5C 135.848,301.59 133.515,300.924 131.5,299.5 Z" />
    </g>
    <g>
        <path style="opacity:0.82" fill="#868686"
            d="M 237.5,300.5 C 237.262,302.404 236.262,303.738 234.5,304.5C 234.738,302.596 235.738,301.262 237.5,300.5 Z" />
    </g>
    <g>
        <path style="opacity:0.4" fill="#a3a3a3"
            d="M 234.5,304.5 C 234.573,306.027 233.906,307.027 232.5,307.5C 232.427,305.973 233.094,304.973 234.5,304.5 Z" />
    </g>
    <g>
        <path style="opacity:0.784" fill="#7c7c7c"
            d="M 336.5,304.5 C 337.496,304.414 338.329,304.748 339,305.5C 339.495,307.473 339.662,309.473 339.5,311.5C 338.869,309.066 337.869,306.732 336.5,304.5 Z" />
    </g>
    <g>
        <path style="opacity:0.702" fill="#929292"
            d="M 282.5,306.5 C 282.027,307.906 281.027,308.573 279.5,308.5C 279.973,307.094 280.973,306.427 282.5,306.5 Z" />
    </g>
    <g>
        <path style="opacity:0.271" fill="#b3b3b3"
            d="M 232.5,307.5 C 232.573,309.027 231.906,310.027 230.5,310.5C 230.427,308.973 231.094,307.973 232.5,307.5 Z" />
    </g>
    <g>
        <path style="opacity:0.204" fill="#c2c3c2"
            d="M 230.5,310.5 C 230.573,312.027 229.906,313.027 228.5,313.5C 228.427,311.973 229.094,310.973 230.5,310.5 Z" />
    </g>
    <g>
        <path style="opacity:0.973" fill="#5e5e5e"
            d="M 306.5,306.5 C 308.5,310.167 310.5,313.833 312.5,317.5C 310.402,316.086 309.402,316.752 309.5,319.5C 307.275,316.738 305.275,313.738 303.5,310.5C 301.955,309.548 300.288,309.215 298.5,309.5C 301.305,308.935 303.972,307.935 306.5,306.5 Z" />
    </g>
    <g>
        <path style="opacity:0.999" fill="#1d1d1e"
            d="M 170.5,315.5 C 170.738,317.404 171.738,318.738 173.5,319.5C 173.5,319.833 173.5,320.167 173.5,320.5C 173.19,323.713 173.523,326.713 174.5,329.5C 173.448,331.256 171.781,331.923 169.5,331.5C 158.664,332.82 154.831,328.153 158,317.5C 161.748,313.287 165.914,312.621 170.5,315.5 Z" />
    </g>
    <g>
        <path style="opacity:0.796" fill="#8a8a8a"
            d="M 343.5,315.5 C 346.5,315.5 349.5,315.5 352.5,315.5C 349.447,317.88 346.447,317.88 343.5,315.5 Z" />
    </g>
    <g>
        <path style="opacity:0.788" fill="#999999"
            d="M 170.5,315.5 C 172.262,316.262 173.262,317.596 173.5,319.5C 171.738,318.738 170.738,317.404 170.5,315.5 Z" />
    </g>
    <g>
        <path style="opacity:0.227" fill="#bababa"
            d="M 227.5,315.5 C 227.573,317.027 226.906,318.027 225.5,318.5C 225.427,316.973 226.094,315.973 227.5,315.5 Z" />
    </g>
    <g>
        <path style="opacity:0.984" fill="#616161"
            d="M 252.5,316.5 C 251.674,318.264 250.341,319.598 248.5,320.5C 248.833,318.167 250.167,316.833 252.5,316.5 Z" />
    </g>
    <g>
        <path style="opacity:0.412" fill="#9c9c9c"
            d="M 312.5,317.5 C 313.906,317.973 314.573,318.973 314.5,320.5C 313.094,320.027 312.427,319.027 312.5,317.5 Z" />
    </g>
    <g>
        <path style="opacity:0.827" fill="#8b8b8b"
            d="M 309.5,319.5 C 310.774,320.189 310.774,321.023 309.5,322C 308.207,322.49 306.873,322.657 305.5,322.5C 307.076,321.857 308.41,320.857 309.5,319.5 Z" />
    </g>
    <g>
        <path style="opacity:0.008" fill="#cccccc"
            d="M 234.5,321.5 C 234.573,323.027 233.906,324.027 232.5,324.5C 232.427,322.973 233.094,321.973 234.5,321.5 Z" />
    </g>
    <g>
        <path style="opacity:0.469" fill="#9e9e9e"
            d="M 266.5,321.5 C 265.976,323.306 265.309,324.972 264.5,326.5C 264.077,324.219 264.744,322.552 266.5,321.5 Z" />
    </g>
    <g>
        <path style="opacity:0.998" fill="#212121"
            d="M 312.5,317.5 C 312.427,319.027 313.094,320.027 314.5,320.5C 323.667,325.315 325.667,332.148 320.5,341C 317.176,342.616 313.843,342.783 310.5,341.5C 309.738,339.738 308.404,338.738 306.5,338.5C 305.596,337.791 305.263,336.791 305.5,335.5C 305.663,333.143 305.497,330.81 305,328.5C 304.005,329.066 303.172,329.733 302.5,330.5C 295.613,334.132 288.279,336.798 280.5,338.5C 277.916,339.048 276.916,340.715 277.5,343.5C 271.785,348.936 266.285,348.603 261,342.5C 260.264,339.408 260.431,336.408 261.5,333.5C 262.5,333.167 263.167,332.5 263.5,331.5C 264.5,331.167 265.167,330.5 265.5,329.5C 269.283,327.99 272.616,328.657 275.5,331.5C 275.414,332.496 275.748,333.329 276.5,334C 278.066,334.765 279.399,334.598 280.5,333.5C 288.648,329.597 296.981,325.93 305.5,322.5C 306.873,322.657 308.207,322.49 309.5,322C 310.774,321.023 310.774,320.189 309.5,319.5C 309.402,316.752 310.402,316.086 312.5,317.5 Z" />
    </g>
    <g>
        <path style="opacity:0.008" fill="#bcbcbc"
            d="M 173.5,320.5 C 174.245,323.39 174.912,326.39 175.5,329.5C 175.167,329.5 174.833,329.5 174.5,329.5C 173.523,326.713 173.19,323.713 173.5,320.5 Z" />
    </g>
    <g>
        <path style="opacity:0.345" fill="#a5a5a5"
            d="M 220.5,326.5 C 220.573,328.027 219.906,329.027 218.5,329.5C 218.427,327.973 219.094,326.973 220.5,326.5 Z" />
    </g>
    <g>
        <path style="opacity:0.216" fill="#bbbbbb"
            d="M 263.5,328.5 C 263.842,329.338 264.508,329.672 265.5,329.5C 265.167,330.5 264.5,331.167 263.5,331.5C 263.5,330.833 263.167,330.5 262.5,330.5C 262.328,329.508 262.662,328.842 263.5,328.5 Z" />
    </g>
    <g>
        <path style="opacity:0.524" fill="#a1a1a1"
            d="M 305.5,335.5 C 305.028,333.469 304.028,331.802 302.5,330.5C 303.172,329.733 304.005,329.066 305,328.5C 305.497,330.81 305.663,333.143 305.5,335.5 Z" />
    </g>
    <g>
        <path style="opacity:0.173" fill="#cfcfcf"
            d="M 262.5,331.5 C 262.833,331.5 263.167,331.5 263.5,331.5C 263.167,332.5 262.5,333.167 261.5,333.5C 260.833,333.5 260.167,333.5 259.5,333.5C 260.29,332.599 261.29,331.932 262.5,331.5 Z" />
    </g>
    <g>
        <path style="opacity:0.675" fill="#b1b1b1"
            d="M 275.5,331.5 C 276.82,332.942 278.486,333.608 280.5,333.5C 279.399,334.598 278.066,334.765 276.5,334C 275.748,333.329 275.414,332.496 275.5,331.5 Z" />
    </g>
    <g>
        <path style="opacity:0.989" fill="#3c3c3c"
            d="M 174.5,329.5 C 174.833,329.5 175.167,329.5 175.5,329.5C 179.537,332.18 183.537,334.846 187.5,337.5C 187.973,338.906 188.973,339.573 190.5,339.5C 194.836,341.332 198.836,343.665 202.5,346.5C 202.5,346.833 202.5,347.167 202.5,347.5C 200.517,347.157 199.183,347.824 198.5,349.5C 193.294,346.735 188.294,343.735 183.5,340.5C 183.027,339.094 182.027,338.427 180.5,338.5C 180.027,337.094 179.027,336.427 177.5,336.5C 174.797,334.819 172.131,333.153 169.5,331.5C 171.781,331.923 173.448,331.256 174.5,329.5 Z" />
    </g>
    <g>
        <path style="opacity:0.239" fill="#c2c2c2"
            d="M 216.5,333.5 C 216.573,335.027 215.906,336.027 214.5,336.5C 214.427,334.973 215.094,333.973 216.5,333.5 Z" />
    </g>
    <g>
        <path style="opacity:0.392" fill="#9f9f9f"
            d="M 177.5,336.5 C 179.027,336.427 180.027,337.094 180.5,338.5C 178.973,338.573 177.973,337.906 177.5,336.5 Z" />
    </g>
    <g>
        <path style="opacity:0.004" fill="#dadada"
            d="M 187.5,337.5 C 189.027,337.427 190.027,338.094 190.5,339.5C 188.973,339.573 187.973,338.906 187.5,337.5 Z" />
    </g>
    <g>
        <path style="opacity:0.004" fill="#d5d5d5"
            d="M 224.5,337.5 C 224.573,339.027 223.906,340.027 222.5,340.5C 222.427,338.973 223.094,337.973 224.5,337.5 Z" />
    </g>
    <g>
        <path style="opacity:0.871" fill="#858585"
            d="M 306.5,338.5 C 308.404,338.738 309.738,339.738 310.5,341.5C 308.596,341.262 307.262,340.262 306.5,338.5 Z" />
    </g>
    <g>
        <path style="opacity:0.227" fill="#bebebe"
            d="M 180.5,338.5 C 182.027,338.427 183.027,339.094 183.5,340.5C 181.973,340.573 180.973,339.906 180.5,338.5 Z" />
    </g>
    <g>
        <path style="opacity:0.549" fill="#a2a2a2"
            d="M 280.5,338.5 C 279.308,340.113 278.308,341.78 277.5,343.5C 276.916,340.715 277.916,339.048 280.5,338.5 Z" />
    </g>
    <g>
        <path style="opacity:0.537" fill="#818181"
            d="M 204.5,340.5 C 205.01,343.388 204.344,345.721 202.5,347.5C 202.5,347.167 202.5,346.833 202.5,346.5C 203.167,344.5 203.833,342.5 204.5,340.5 Z" />
    </g>
    <g>
        <path style="opacity:0.027" fill="#dfdfdf"
            d="M 221.5,341.5 C 221.037,344.33 220.371,346.997 219.5,349.5C 219.337,347.143 219.503,344.81 220,342.5C 220.383,341.944 220.883,341.611 221.5,341.5 Z" />
    </g>
    <g>
        <path style="opacity:0.361" fill="#a4a4a4"
            d="M 198.5,349.5 C 200.027,349.427 201.027,350.094 201.5,351.5C 199.973,351.573 198.973,350.906 198.5,349.5 Z" />
    </g>
    <g>
        <path style="opacity:0.376" fill="#a6a6a6"
            d="M 201.5,351.5 C 203.027,351.427 204.027,352.094 204.5,353.5C 202.973,353.573 201.973,352.906 201.5,351.5 Z" />
    </g>
</svg>