<?xml version="1.0" encoding="UTF-8"?>
<!DOCTYPE svg PUBLIC "-//W3C//DTD SVG 1.1//EN" "http://www.w3.org/Graphics/SVG/1.1/DTD/svg11.dtd">
<svg xmlns="http://www.w3.org/2000/svg" version="1.1" width="500px" height="500px" style="shape-rendering:geometricPrecision; text-rendering:geometricPrecision; image-rendering:optimizeQuality; fill-rule:evenodd; clip-rule:evenodd" xmlns:xlink="http://www.w3.org/1999/xlink">
<g><path style="opacity:0.985" fill="#f8f8f8" d="M 315.5,193.5 C 317.316,195.441 319.316,196.108 321.5,195.5C 324.961,197.091 328.628,197.758 332.5,197.5C 336.061,198.23 339.727,198.897 343.5,199.5C 353.327,213.148 362.66,227.148 371.5,241.5C 372.391,243.609 373.558,245.609 375,247.5C 375.828,231.328 375.661,215.328 374.5,199.5C 374.5,198.5 374.5,197.5 374.5,196.5C 383.784,196.865 392.784,196.865 401.5,196.5C 403.319,196.342 404.652,197.009 405.5,198.5C 405.239,230.847 404.906,263.847 404.5,297.5C 396.179,298.426 388.012,298.76 380,298.5C 368.752,282.339 357.752,266.006 347,249.5C 345.837,251.285 345.17,253.285 345,255.5C 344.667,253.167 344.333,250.833 344,248.5C 343.333,263.833 343.333,279.167 344,294.5C 344.374,295.416 344.874,296.25 345.5,297C 358.95,298.068 361.95,304.068 354.5,315C 345.378,319.182 339.878,316.349 338,306.5C 337.097,305.299 335.931,304.465 334.5,304C 324.798,302.617 315.464,303.783 306.5,307.5C 310.155,314.493 314.989,320.493 321,325.5C 324.425,330.83 324.258,335.997 320.5,341C 310.303,344.565 304.637,341.065 303.5,330.5C 302.279,329.535 300.946,329.702 299.5,331C 299.728,331.399 300.062,331.565 300.5,331.5C 294.126,334.462 287.459,336.962 280.5,339C 275.484,348.67 268.984,349.837 261,342.5C 260.223,339.571 260.39,336.737 261.5,334C 251.079,335.579 246.579,331.079 248,320.5C 249.664,316.916 252.497,315.249 256.5,315.5C 258.228,315.59 259.894,315.923 261.5,316.5C 274.347,309.91 287.347,303.577 300.5,297.5C 303.86,293.307 307.027,288.974 310,284.5C 310.667,258.833 310.667,233.167 310,207.5C 306.645,204.145 303.312,200.812 300,197.5C 286.595,190.213 273.095,183.047 259.5,176C 252.996,175.07 246.662,175.736 240.5,178C 228.495,181.836 216.829,186.503 205.5,192C 207.888,193.861 210.554,195.194 213.5,196C 217.844,196.422 221.844,196.922 225.5,197.5C 232.066,198.785 236.733,198.785 239.5,197.5C 243.004,196.499 246.337,196.499 249.5,197.5C 252.5,198.833 255.5,198.833 258.5,197.5C 288.061,200.056 303.061,216.056 303.5,245.5C 303.5,249.833 303.5,254.167 303.5,258.5C 303.738,276.445 295.404,288.612 278.5,295C 269.878,297.649 261.378,298.482 253,297.5C 251.491,298.09 249.991,298.756 248.5,299.5C 239.929,313.636 231.096,327.636 222,341.5C 221.364,346.512 219.531,351.012 216.5,355C 213.167,357 209.833,357 206.5,355C 193.886,347.351 181.386,339.517 169,331.5C 164.752,333.028 161.252,332.028 158.5,328.5C 158.938,328.565 159.272,328.399 159.5,328C 158.934,327.005 158.267,326.172 157.5,325.5C 156.391,315.797 160.725,312.297 170.5,315C 173.804,318.81 175.304,323.31 175,328.5C 176.167,329.667 177.333,330.833 178.5,332C 186.749,336.707 194.916,341.541 203,346.5C 203.333,344.5 203.667,342.5 204,340.5C 207.993,338.052 211.993,335.719 216,333.5C 222.574,321.766 229.741,310.433 237.5,299.5C 227.307,297.974 217.474,297.308 208,297.5C 207.667,266.5 207.333,235.5 207,204.5C 202.853,202.518 199.02,200.184 195.5,197.5C 192.144,195.401 188.644,193.401 185,191.5C 184.601,191.728 184.435,192.062 184.5,192.5C 178.497,189.495 172.497,186.495 166.5,183.5C 158.955,185.383 154.955,182.383 154.5,174.5C 154.497,170.759 155.83,167.759 158.5,165.5C 159.994,166.399 161.494,166.065 163,164.5C 165.071,165.525 167.238,166.358 169.5,167C 171.382,169.978 172.882,173.145 174,176.5C 180.079,179.442 186.579,182.442 193.5,185.5C 199.558,183.39 205.058,180.39 210,176.5C 210.414,176.957 210.914,177.291 211.5,177.5C 224.923,171.362 238.59,166.029 252.5,161.5C 263.228,166.278 274.061,171.611 285,177.5C 289.479,174.682 292.979,170.848 295.5,166C 293.804,163.413 292.804,160.579 292.5,157.5C 289.458,157.267 286.792,156.267 284.5,154.5C 281.812,152.734 278.979,151.067 276,149.5C 275.601,149.728 275.435,150.062 275.5,150.5C 271.248,151.397 266.915,151.397 262.5,150.5C 260.601,148.036 259.268,145.369 258.5,142.5C 258.543,133.241 262.876,130.574 271.5,134.5C 273.703,136.295 274.869,138.629 275,141.5C 280.861,144.903 287.028,147.736 293.5,150C 295.713,150.626 297.88,150.459 300,149.5C 307.053,150.543 310.386,154.543 310,161.5C 305.781,168.772 300.948,175.605 295.5,182C 302.13,186.141 308.797,189.974 315.5,193.5 Z M 239.5,222.5 C 269.261,218.432 280.761,231.099 274,260.5C 270.256,269.881 263.256,274.214 253,273.5C 248.53,272.736 244.03,272.403 239.5,272.5C 239.5,255.833 239.5,239.167 239.5,222.5 Z M 327.5,295.5 C 329.308,296.907 331.308,298.074 333.5,299C 331.421,299.808 329.421,299.641 327.5,298.5C 326.209,297.473 326.209,296.473 327.5,295.5 Z M 283.5,332.5 C 281.94,332.519 280.44,332.852 279,333.5C 277.269,332.259 275.436,331.259 273.5,330.5C 272.376,329.191 270.876,328.525 269,328.5C 267.159,329.125 265.326,329.292 263.5,329C 264.802,326.787 265.802,324.454 266.5,322C 277.937,317.632 289.437,313.466 301,309.5C 301.833,309.833 302.667,310.167 303.5,310.5C 305.375,313.751 307.375,316.918 309.5,320C 300.808,324.277 292.142,328.443 283.5,332.5 Z"/></g>
<g><path style="opacity:0.337" fill="#a5a5a5" d="M 258.5,142.5 C 259.268,145.369 260.601,148.036 262.5,150.5C 259.11,149.056 257.777,146.39 258.5,142.5 Z"/></g>
<g><path style="opacity:0.996" fill="#f3f3f3" d="M 207.5,152.5 C 209.475,154.137 211.475,155.804 213.5,157.5C 215.713,165.066 212.879,169.4 205,170.5C 201.332,171 198.666,169.666 197,166.5C 196.333,162.833 196.333,159.167 197,155.5C 199.999,152.104 203.499,151.104 207.5,152.5 Z"/></g>
<g><path style="opacity:0.2" fill="#a4a4a4" d="M 207.5,152.5 C 210.712,152.712 212.712,154.379 213.5,157.5C 211.475,155.804 209.475,154.137 207.5,152.5 Z"/></g>
<g><path style="opacity:0.275" fill="#a9a9a9" d="M 284.5,154.5 C 281.088,153.958 278.088,152.625 275.5,150.5C 275.435,150.062 275.601,149.728 276,149.5C 278.979,151.067 281.812,152.734 284.5,154.5 Z"/></g>
<g><path style="opacity:0.004" fill="#fdfefd" d="M 158.5,164.5 C 159.833,165.167 159.833,165.167 158.5,164.5 Z"/></g>
<g><path style="opacity:0.991" fill="#f9f9f9" d="M 192.5,224.5 C 191.596,225.209 191.263,226.209 191.5,227.5C 183.414,227.801 175.414,227.467 167.5,226.5C 162.339,216.757 154.339,213.257 143.5,216C 139.452,218.083 137.119,221.417 136.5,226C 136.639,227.301 137.305,228.134 138.5,228.5C 150.87,232.259 163.537,235.426 176.5,238C 190.915,242.553 197.915,252.22 197.5,267C 194.684,286.817 183.351,298.484 163.5,302C 153.772,302.891 144.106,302.557 134.5,301C 124.742,297.934 117.075,292.767 111.5,285.5C 108.257,278.529 106.257,271.195 105.5,263.5C 114.192,263.169 122.859,263.502 131.5,264.5C 136.721,279.521 146.721,284.021 161.5,278C 166.89,273.038 167.557,267.705 163.5,262C 153.264,259.738 142.931,257.905 132.5,256.5C 111.133,249.16 103.633,235.16 110,214.5C 112.254,210.993 114.254,207.327 116,203.5C 121.343,199.149 127.343,196.149 134,194.5C 134.945,194.095 135.612,193.428 136,192.5C 148.732,191.907 161.232,193.74 173.5,198C 183.496,204.169 189.83,213.003 192.5,224.5 Z"/></g>
<g><path style="opacity:0.235" fill="#adadad" d="M 195.5,197.5 C 191.418,196.624 187.751,194.957 184.5,192.5C 184.435,192.062 184.601,191.728 185,191.5C 188.644,193.401 192.144,195.401 195.5,197.5 Z"/></g>
<g><path style="opacity:0.231" fill="#b0afaf" d="M 315.5,193.5 C 317.703,193.604 319.703,194.27 321.5,195.5C 319.316,196.108 317.316,195.441 315.5,193.5 Z"/></g>
<g><path style="opacity:0.752" fill="#505050" d="M 239.5,197.5 C 236.733,198.785 232.066,198.785 225.5,197.5C 229.917,197.347 234.584,197.347 239.5,197.5 Z"/></g>
<g><path style="opacity:0.557" fill="#767676" d="M 258.5,197.5 C 255.5,198.833 252.5,198.833 249.5,197.5C 252.004,197.152 255.004,197.152 258.5,197.5 Z"/></g>
<g><path style="opacity:0.506" fill="#909091" d="M 343.5,199.5 C 339.727,198.897 336.061,198.23 332.5,197.5C 335.579,197.74 338.579,197.407 341.5,196.5C 342.919,197.005 343.585,198.005 343.5,199.5 Z"/></g>
<g><path style="opacity:0.269" fill="#c7c7c7" d="M 374.5,199.5 C 375.661,215.328 375.828,231.328 375,247.5C 373.558,245.609 372.391,243.609 371.5,241.5C 372.222,241.082 372.722,240.416 373,239.5C 373.333,240.833 373.667,242.167 374,243.5C 374.5,228.837 374.667,214.17 374.5,199.5 Z"/></g>
<g><path style="opacity:0.004" fill="#fcfdfc" d="M 138.5,227.5 C 139.833,228.167 139.833,228.167 138.5,227.5 Z"/></g>
<g><path style="opacity:0.4" fill="#919191" d="M 192.5,224.5 C 192.815,226.226 192.981,227.893 193,229.5C 184.667,228.167 176.333,228.167 168,229.5C 167.517,228.552 167.351,227.552 167.5,226.5C 175.414,227.467 183.414,227.801 191.5,227.5C 191.263,226.209 191.596,225.209 192.5,224.5 Z"/></g>
<g><path style="opacity:0.004" fill="#fbfcfb" d="M 304.5,244.5 C 305.833,245.167 305.833,245.167 304.5,244.5 Z"/></g>
<g><path style="opacity:0.005" fill="#fcfcfc" d="M 303.5,245.5 C 303.833,245.5 304.167,245.5 304.5,245.5C 307.434,250.934 307.1,255.268 303.5,258.5C 303.5,254.167 303.5,249.833 303.5,245.5 Z"/></g>
<g><path style="opacity:0.004" fill="#fbfcfb" d="M 132.5,256.5 C 131.833,257.167 131.833,257.167 132.5,256.5 Z"/></g>
<g><path style="opacity:0.004" fill="#fcfdfc" d="M 111.5,285.5 C 110.833,286.167 110.833,286.167 111.5,285.5 Z"/></g>
<g><path style="opacity:0.329" fill="#8d8d8d" d="M 157.5,325.5 C 158.267,326.172 158.934,327.005 159.5,328C 159.272,328.399 158.938,328.565 158.5,328.5C 157.596,327.791 157.263,326.791 157.5,325.5 Z"/></g>
<g><path style="opacity:0.361" fill="#8d8d8d" d="M 303.5,330.5 C 302.609,331.11 301.609,331.443 300.5,331.5C 300.062,331.565 299.728,331.399 299.5,331C 300.946,329.702 302.279,329.535 303.5,330.5 Z"/></g>
<g><path style="opacity:0.024" fill="#b9b9b9" d="M 273.5,330.5 C 275.436,331.259 277.269,332.259 279,333.5C 280.44,332.852 281.94,332.519 283.5,332.5C 281.891,333.771 280.058,334.771 278,335.5C 276.293,333.963 274.793,332.296 273.5,330.5 Z"/></g>
</svg>
