<?xml version="1.0" standalone="no"?>
<!DOCTYPE svg PUBLIC "-//W3C//DTD SVG 20010904//EN"
 "http://www.w3.org/TR/2001/REC-SVG-20010904/DTD/svg10.dtd">
<svg version="1.0" xmlns="http://www.w3.org/2000/svg"
 width="500.000000pt" height="500.000000pt" viewBox="0 0 500.000000 500.000000"
 preserveAspectRatio="xMidYMid meet">

<g transform="translate(0.000000,500.000000) scale(0.100000,-0.100000)"
fill="#000000" stroke="none">
<path d="M4597 4303 c-16 -16 -5 -65 21 -94 22 -24 37 -32 68 -33 l39 -1 3 68
3 67 -64 0 c-35 0 -67 -3 -70 -7z"/>
<path d="M4490 4276 c-160 -56 -345 -204 -453 -363 l-42 -61 -65 -7 c-83 -8
-175 -52 -214 -101 -35 -45 -71 -131 -81 -194 l-7 -45 43 42 c44 42 126 85
187 98 17 4 32 3 32 -2 0 -5 6 -17 13 -27 13 -17 16 -16 58 23 56 52 157 104
195 99 27 -3 29 -6 27 -40 -3 -49 -43 -133 -90 -187 -35 -42 -36 -44 -18 -57
10 -8 23 -14 28 -14 15 0 -1 -79 -27 -136 -13 -28 -40 -69 -60 -91 l-36 -40
48 8 c71 14 167 64 206 111 44 51 66 114 68 196 l2 63 76 63 c148 123 264 283
314 434 31 93 32 102 6 102 -11 0 -37 7 -59 16 -38 15 -60 45 -78 106 l-8 27
-65 -23z m18 -162 c81 -53 50 -177 -49 -199 -68 -15 -137 52 -126 122 7 38 38
79 72 94 25 11 72 3 103 -17z"/>
<path d="M4424 4102 c-78 -12 -76 -137 2 -156 28 -7 79 16 88 39 9 24 7 64 -4
85 -11 21 -55 37 -86 32z"/>
<path d="M4064 3650 c-63 -35 -142 -122 -183 -200 -17 -32 -31 -61 -31 -64 0
-3 23 8 51 26 80 49 163 131 197 196 46 85 44 87 -34 42z"/>
<path d="M2844 3630 c-126 -11 -219 -37 -340 -95 -174 -84 -316 -201 -406
-334 -17 -25 -33 -48 -35 -50 -1 -2 -43 15 -92 38 -158 75 -341 98 -526 66
-397 -69 -686 -401 -712 -816 -5 -89 -4 -97 13 -102 46 -14 395 -57 460 -57
l25 0 -25 43 c-99 168 -58 424 82 517 60 40 107 51 205 51 141 -1 226 -38 284
-125 42 -62 62 -130 70 -233 l6 -83 -162 0 -161 0 0 63 c0 36 -5 68 -12 75
-18 18 -46 14 -58 -8 -19 -35 20 -97 123 -199 l96 -94 128 17 c117 15 251 39
296 52 16 5 17 26 17 265 l0 259 233 0 c127 0 248 -5 267 -10 96 -26 179 -117
195 -212 l7 -39 75 41 c41 22 106 60 144 85 69 44 69 45 69 90 l0 45 69 0 c67
0 70 1 137 51 95 71 298 246 359 309 l50 51 -62 59 c-122 116 -281 206 -434
249 -66 18 -245 43 -289 39 -8 0 -51 -4 -96 -8z"/>
<path d="M3560 3069 c-171 -176 -183 -189 -155 -189 l30 0 40 -212 40 -213 3
213 2 212 150 0 150 0 0 -695 0 -696 -152 3 -152 3 -47 230 -47 230 -1 -232
-1 -233 -155 0 -155 0 -2 578 -3 579 -136 -101 -137 -101 -4 -345 c-5 -382 -8
-404 -72 -497 -23 -34 -50 -57 -91 -78 l-58 -30 -244 -3 -243 -3 0 286 c0 165
-4 285 -9 285 -5 0 -33 -9 -63 -20 -29 -10 -84 -29 -123 -40 l-70 -20 -1 -98
c-4 -298 -136 -431 -401 -401 -168 19 -252 95 -289 264 -7 33 -13 79 -14 101
l0 41 -93 7 c-236 18 -450 56 -646 116 -71 22 -131 40 -134 40 -10 0 -77 -148
-92 -205 -20 -78 -20 -240 1 -324 22 -90 87 -211 148 -279 101 -110 259 -192
407 -212 59 -8 578 -10 1749 -8 1882 4 1723 -3 1906 87 303 150 483 490 435
819 -55 377 -332 635 -726 676 -120 13 -112 6 -120 98 -8 98 -43 224 -91 327
-35 77 -131 232 -143 230 -3 0 -89 -86 -191 -190z"/>
<path d="M1392 2836 c-70 -18 -120 -60 -157 -131 -28 -55 -30 -66 -30 -169 0
-154 16 -183 205 -380 161 -168 180 -201 180 -318 0 -52 -3 -63 -29 -89 -18
-17 -40 -29 -56 -29 -16 0 -38 12 -56 29 -28 29 -29 32 -29 135 l0 106 -110 0
-110 0 0 -103 c0 -230 64 -328 234 -358 121 -21 245 10 295 73 96 121 108 382
24 528 -14 25 -88 106 -164 180 -76 74 -147 151 -158 170 -22 37 -27 99 -11
130 14 26 71 43 103 31 34 -13 47 -40 47 -95 l0 -46 116 0 117 0 -7 64 c-18
182 -106 270 -278 281 -44 3 -94 -1 -126 -9z"/>
<path d="M2170 2185 l0 -657 208 4 c234 5 270 14 328 80 67 76 69 92 69 593
l0 450 -24 47 c-28 58 -77 103 -128 119 -21 6 -130 14 -245 16 l-208 5 0 -657z
m334 451 c23 -9 37 -24 45 -46 15 -43 15 -767 1 -806 -16 -41 -39 -53 -102
-54 l-58 0 0 460 0 460 40 0 c22 0 56 -6 74 -14z"/>
<path d="M2440 2530 c0 -73 2 -76 44 -60 23 8 26 15 26 58 0 53 -12 72 -47 72
-22 0 -23 -4 -23 -70z"/>
<path d="M2463 2223 l-33 -16 7 -216 c3 -119 7 -218 10 -220 2 -3 16 0 31 5
l27 9 3 228 c1 125 -1 227 -5 226 -5 0 -23 -8 -40 -16z"/>
<path d="M3160 2185 l0 -655 110 0 110 0 0 330 0 330 23 0 c21 0 25 -13 88
-327 l65 -328 112 -3 112 -3 0 656 0 655 -110 0 -110 0 0 -316 0 -315 -22 3
c-22 3 -26 20 -83 316 l-60 312 -117 0 -118 0 0 -655z"/>
<path d="M1460 1866 c0 -69 14 -98 48 -94 26 3 27 5 30 71 l3 67 -41 0 -40 0
0 -44z"/>
</g>
</svg>
